<svg xmlns="http://www.w3.org/2000/svg" viewBox="93 9.5 40 40">
  <path fill="#073042" d="M109.32,16.06H100.9a3.1,3.1,0,0,0-3.09,3.1,3,3,0,0,0,3,3.09h8.6Z"></path>
  <path fill="#4285f4" d="M128.5,43.61H100.89a3.1,3.1,0,0,1-3.08-3.09V19.14a3.1,3.1,0,0,0,3.29,3.11H124s4.5-.39,4.5,3Z"></path>
  <path d="M113.92,28.74a1.72,1.72,0,1,0,.66,3.3,1.71,1.71,0,0,0-.66-3.3Z"></path>
  <path fill="#3870b2" d="M115.62,32.66a2.78,2.78,0,0,0-1.59-5h.09a2.63,2.63,0,0,1,.49,0V25.94a.55.55,0,0,0-.26-.49.54.54,0,0,0-.55,0,.55.55,0,0,0-.26.49v1.75a2.79,2.79,0,0,0-1.22,5l-5.09,10.88h3.32l2.35-5a1.22,1.22,0,0,1,1.1-.69,1.2,1.2,0,0,1,1.09.69l2.42,5h3.36Zm-1.7-.49a1.72,1.72,0,0,1-1.21-2.93,1.71,1.71,0,0,1,2.93,1.21,1.72,1.72,0,0,1-1.72,1.72Z"></path>
  <path fill="#fff" d="M107.5,17.58h11.81v2.17H107.5Z"></path>
  <path fill="#073042" d="M113,28.74a1.71,1.71,0,1,1-1.22.5A1.74,1.74,0,0,1,113,28.74Zm.68-1V25.94a.55.55,0,0,0-.26-.49.54.54,0,0,0-.55,0,.55.55,0,0,0-.26.49v1.75a2.79,2.79,0,0,0-1.22,5L105,46.44a1.52,1.52,0,0,0,.11,1.53,1.54,1.54,0,0,0,1.39.65,1.51,1.51,0,0,0,1.24-.9L112,38.57a1.23,1.23,0,0,1,1.1-.69,1.2,1.2,0,0,1,1.09.69l4.37,9.1a1.51,1.51,0,1,0,2.72-1.32L114.7,32.66a2.77,2.77,0,0,0,1-2.77,2.8,2.8,0,0,0-2-2.14"></path>
  <path fill="#3ddc84" d="M117.6,19.49a.8.8,0,0,1-.58-1.37.81.81,0,0,1,1.38.57.8.8,0,0,1-.8.8m-8.89,0a.8.8,0,0,1-.57-1.37.81.81,0,1,1,1.14,1.14.79.79,0,0,1-.57.23m9.18-4.85,1.6-2.78a.34.34,0,0,0-.58-.34l-1.62,2.82a10.08,10.08,0,0,0-8.26,0l-1.63-2.82a.34.34,0,0,0-.29-.17.37.37,0,0,0-.29.17.34.34,0,0,0,0,.34l1.61,2.78a9.52,9.52,0,0,0-4.92,7.61h19.3a9.52,9.52,0,0,0-4.92-7.61"></path>
  <path fill="#073042" d="M125.73,28.18h-1.27a.16.16,0,0,0-.16.16l0,20.05a.16.16,0,0,0,.15.16h1.31a2.78,2.78,0,0,0,2.77-2.78V25.4A2.78,2.78,0,0,1,125.73,28.18Z"></path>
</svg>
